HIERARCHY
ROOT Reference
{
  OFFSET 0 0 0
  CHANNELS 6 Xposition Yposition Zposition Zrotation Xrotation Yrotation
  JOINT Hips
  {
    OFFSET 251.394 724.17 483.536
    CHANNELS 3 Zrotation Xrotation Yrotation
    JOINT RightUpLeg
    {
      OFFSET -0.450515 -23.4426 -1.37224
      CHANNELS 3 Zrotation Xrotation Yrotation
      JOINT RightLeg
      {
        OFFSET 112.821 0.0872427 -0.321027
        CHANNELS 3 Zrotation Xrotation Yrotation
        JOINT RightFoot
        {
          OFFSET 105.718 0.000193788 0.0213165
          CHANNELS 3 Zrotation Xrotation Yrotation
          JOINT RightToeBase
          {
            OFFSET 37.638 -0.000116272 0.00224792
            CHANNELS 3 Zrotation Xrotation Yrotation
            JOINT RightToeEnd
            {
              OFFSET 21.2112 0.114605 -0.000138184
              CHANNELS 3 Zrotation Xrotation Yrotation
              End Site
              {
                OFFSET 0 0 0
              }
            }
          }
        }
      }
    }
    JOINT LeftUpLeg
    {
      OFFSET -0.449508 23.4315 -1.37054
      CHANNELS 3 Zrotation Xrotation Yrotation
      JOINT LeftLeg
      {
        OFFSET 112.821 -0.0485242 -0.372458
        CHANNELS 3 Zrotation Xrotation Yrotation
        JOINT LeftFoot
        {
          OFFSET 105.716 0.00496094 -0.0229443
          CHANNELS 3 Zrotation Xrotation Yrotation
          JOINT LeftToeBase
          {
            OFFSET 37.639 0 0.00158905
            CHANNELS 3 Zrotation Xrotation Yrotation
            JOINT LeftToeEnd
            {
              OFFSET 21.2113 -0.125031 -0.00017438
              CHANNELS 3 Zrotation Xrotation Yrotation
              End Site
              {
                OFFSET 0 0 0
              }
            }
          }
        }
      }
    }
    JOINT Spine
    {
      OFFSET -5.01225 0.000463591 -9.60395
      CHANNELS 3 Zrotation Xrotation Yrotation
      JOINT Spine1
      {
        OFFSET 26.0222 -0.000271301 -0.000155029
        CHANNELS 3 Zrotation Xrotation Yrotation
        JOINT Spine2
        {
          OFFSET 27.173 -0.000155029 -0.000310058
          CHANNELS 3 Zrotation Xrotation Yrotation
          JOINT Spine3
          {
            OFFSET 36.3953 -0.000232544 7.75146e-005
            CHANNELS 3 Zrotation Xrotation Yrotation
            JOINT Neck
            {
              OFFSET 36.4331 0 -3.00261
              CHANNELS 3 Zrotation Xrotation Yrotation
              JOINT Head
              {
                OFFSET 23.0407 -0.000232544 -0.000310058
                CHANNELS 3 Zrotation Xrotation Yrotation
                End Site
                {
                  OFFSET 0 0 0
                }
              }
            }
            JOINT LeftShoulder
            {
              OFFSET 20.1317 6.74168 -12.6061
              CHANNELS 3 Zrotation Xrotation Yrotation
              JOINT LeftArm
              {
                OFFSET 34.2172 -5.81359e-005 7.75146e-005
                CHANNELS 3 Zrotation Xrotation Yrotation
                JOINT LeftForeArm
                {
                  OFFSET 65.4129 -0.0821605 0.0585235
                  CHANNELS 3 Zrotation Xrotation Yrotation
                  JOINT LeftHand
                  {
                    OFFSET 67.3883 0.0359667 0.0112396
                    CHANNELS 3 Zrotation Xrotation Yrotation
                    JOINT LeftHandThumb1
                    {
                      OFFSET 8.78386 2.85353 -6.05362
                      CHANNELS 3 Zrotation Xrotation Yrotation
                      JOINT LeftHandThumb2
                      {
                        OFFSET 8.25498 -0.000116272 -0.000174407
                        CHANNELS 3 Zrotation Xrotation Yrotation
                        JOINT LeftHandThumb3
                        {
                          OFFSET 7.24822 0.000310058 5.81358e-005
                          CHANNELS 3 Zrotation Xrotation Yrotation
                          JOINT LeftHandThumb4
                          {
                            OFFSET 7.0004 -3.87568e-005 -0.000310057
                            CHANNELS 3 Zrotation Xrotation Yrotation
                            End Site
                            {
                              OFFSET 0 0 0
                            }
                          }
                        }
                      }
                    }
                    JOINT LeftHandIndex1
                    {
                      OFFSET 24.0991 -1.01537 -5.40558
                      CHANNELS 3 Zrotation Xrotation Yrotation
                      JOINT LeftHandIndex2
                      {
                        OFFSET 7.26759 -0.000290679 -0.000465086
                        CHANNELS 3 Zrotation Xrotation Yrotation
                        JOINT LeftHandIndex3
                        {
                          OFFSET 7.13628 -1.93787e-005 0.000232543
                          CHANNELS 3 Zrotation Xrotation Yrotation
                          JOINT LeftHandIndex4
                          {
                            OFFSET 5.46699 9.68932e-005 -0.000387571
                            CHANNELS 3 Zrotation Xrotation Yrotation
                            End Site
                            {
                              OFFSET 0 0 0
                            }
                          }
                        }
                      }
                    }
                    JOINT LeftHandMiddle1
                    {
                      OFFSET 24.4604 -2.52837 0.918567
                      CHANNELS 3 Zrotation Xrotation Yrotation
                      JOINT LeftHandMiddle2
                      {
                        OFFSET 7.41627 -5.81359e-005 0.000116271
                        CHANNELS 3 Zrotation Xrotation Yrotation
                        JOINT LeftHandMiddle3
                        {
                          OFFSET 8.76829 3.87573e-005 -7.75142e-005
                          CHANNELS 3 Zrotation Xrotation Yrotation
                          JOINT LeftHandMiddle4
                          {
                            OFFSET 6.07588 -0.00013565 -5.81356e-005
                            CHANNELS 3 Zrotation Xrotation Yrotation
                            End Site
                            {
                              OFFSET 0 0 0
                            }
                          }
                        }
                      }
                    }
                    JOINT LeftHandRing1
                    {
                      OFFSET 22.465 -1.97467 6.3466
                      CHANNELS 3 Zrotation Xrotation Yrotation
                      JOINT LeftHandRing2
                      {
                        OFFSET 7.36666 -0.000232544 0.000387571
                        CHANNELS 3 Zrotation Xrotation Yrotation
                        JOINT LeftHandRing3
                        {
                          OFFSET 8.07624 -0.000465087 -0.000203475
                          CHANNELS 3 Zrotation Xrotation Yrotation
                          JOINT LeftHandRing4
                          {
                            OFFSET 6.04433 0.00013565 3.87571e-005
                            CHANNELS 3 Zrotation Xrotation Yrotation
                            End Site
                            {
                              OFFSET 0 0 0
                            }
                          }
                        }
                      }
                    }
                    JOINT LeftHandPinky1
                    {
                      OFFSET 19.5278 0.352933 10.4295
                      CHANNELS 3 Zrotation Xrotation Yrotation
                      JOINT LeftHandPinky2
                      {
                        OFFSET 6.16525 5.8136e-005 -0.000251921
                        CHANNELS 3 Zrotation Xrotation Yrotation
                        JOINT LeftHandPinky3
                        {
                          OFFSET 6.14448 -0.000329434 -0.00510625
                          CHANNELS 3 Zrotation Xrotation Yrotation
                          JOINT LeftHandPinky4
                          {
                            OFFSET 4.98555 0.000116272 0.000116271
                            CHANNELS 3 Zrotation Xrotation Yrotation
                            End Site
                            {
                              OFFSET 0 0 0
                            }
                          }
                        }
                      }
                    }
                  }
                }
              }
            }
            JOINT RightShoulder
            {
              OFFSET 20.1309 -6.74152 -12.6063
              CHANNELS 3 Zrotation Xrotation Yrotation
              JOINT RightArm
              {
                OFFSET 34.2171 7.75146e-005 7.75146e-005
                CHANNELS 3 Zrotation Xrotation Yrotation
                JOINT RightForeArm
                {
                  OFFSET 65.4492 0.242543 -0.176501
                  CHANNELS 3 Zrotation Xrotation Yrotation
                  JOINT RightHand
                  {
                    OFFSET 67.3888 -0.0867388 0.0597442
                    CHANNELS 3 Zrotation Xrotation Yrotation
                    JOINT RightHandThumb1
                    {
                      OFFSET 8.78307 -2.85357 -6.05302
                      CHANNELS 3 Zrotation Xrotation Yrotation
                      JOINT RightHandThumb2
                      {
                        OFFSET 8.25493 -7.75145e-005 0
                        CHANNELS 3 Zrotation Xrotation Yrotation
                        JOINT RightHandThumb3
                        {
                          OFFSET 7.24797 -0.000174408 0.000155029
                          CHANNELS 3 Zrotation Xrotation Yrotation
                          JOINT RightHandThumb4
                          {
                            OFFSET 7.00062 0 0
                            CHANNELS 3 Zrotation Xrotation Yrotation
                            End Site
                            {
                              OFFSET 0 0 0
                            }
                          }
                        }
                      }
                    }
                    JOINT RightHandIndex1
                    {
                      OFFSET 24.0991 1.01525 -5.40578
                      CHANNELS 3 Zrotation Xrotation Yrotation
                      JOINT RightHandIndex2
                      {
                        OFFSET 7.26773 7.75144e-005 0.000232543
                        CHANNELS 3 Zrotation Xrotation Yrotation
                        JOINT RightHandIndex3
                        {
                          OFFSET 7.13572 -0.000310058 3.87571e-005
                          CHANNELS 3 Zrotation Xrotation Yrotation
                          JOINT RightHandIndex4
                          {
                            OFFSET 5.46717 0 3.87572e-005
                            CHANNELS 3 Zrotation Xrotation Yrotation
                            End Site
                            {
                              OFFSET 0 0 0
                            }
                          }
                        }
                      }
                    }
                    JOINT RightHandMiddle1
                    {
                      OFFSET 24.4603 2.52899 0.918547
                      CHANNELS 3 Zrotation Xrotation Yrotation
                      JOINT RightHandMiddle2
                      {
                        OFFSET 7.41641 -0.000116272 -0.000116272
                        CHANNELS 3 Zrotation Xrotation Yrotation
                        JOINT RightHandMiddle3
                        {
                          OFFSET 8.76765 -3.87577e-005 0.000232543
                          CHANNELS 3 Zrotation Xrotation Yrotation
                          JOINT RightHandMiddle4
                          {
                            OFFSET 6.07609 -0.000193787 -0.000116271
                            CHANNELS 3 Zrotation Xrotation Yrotation
                            End Site
                            {
                              OFFSET 0 0 0
                            }
                          }
                        }
                      }
                    }
                    JOINT RightHandRing1
                    {
                      OFFSET 22.465 1.97571 6.34696
                      CHANNELS 3 Zrotation Xrotation Yrotation
                      JOINT RightHandRing2
                      {
                        OFFSET 7.36684 0.000193786 0.000155029
                        CHANNELS 3 Zrotation Xrotation Yrotation
                        JOINT RightHandRing3
                        {
                          OFFSET 8.07614 -0.000271301 0
                          CHANNELS 3 Zrotation Xrotation Yrotation
                          JOINT RightHandRing4
                          {
                            OFFSET 6.04468 0.000232543 0
                            CHANNELS 3 Zrotation Xrotation Yrotation
                            End Site
                            {
                              OFFSET 0 0 0
                            }
                          }
                        }
                      }
                    }
                    JOINT RightHandPinky1
                    {
                      OFFSET 19.5277 -0.352346 10.4296
                      CHANNELS 3 Zrotation Xrotation Yrotation
                      JOINT RightHandPinky2
                      {
                        OFFSET 6.16508 0 0.000232543
                        CHANNELS 3 Zrotation Xrotation Yrotation
                        JOINT RightHandPinky3
                        {
                          OFFSET 6.14396 -0.000155048 -0.0048834
                          CHANNELS 3 Zrotation Xrotation Yrotation
                          JOINT RightHandPinky4
                          {
                            OFFSET 4.98577 -7.75146e-005 -7.75143e-005
                            CHANNELS 3 Zrotation Xrotation Yrotation
                            End Site
                            {
                              OFFSET 0 0 0
                            }
                          }
                        }
                      }
                    }
                  }
                }
              }
            }
          }
        }
      }
    }
  }
}
MOTION
Frames:	5
Frame Time:	0.0333333
0 0 0 -90.9133 -3.69247 -92.7473 3.88108 21.4739 48.8907 -122.446 -28.9121 -18.6285 0.01904 0.0573822 -18.3625 3.85915 -0.473852 29.8261 -0.566989 0.127819 55.4275 -3.14345e-006 9.94421e-007 -86.4974 135.525 11.1601 -5.14785 0.000878685 0.0117317 -4.28337 0.173064 -2.72432 27.0041 0.589672 -0.0745417 61.4843 1.99359e-006 1.52223e-006 -86.4974 8.78962e-006 1.24729e-005 144.828 -5.68882 -1.68312 0.996842 -9.96686 -5.16454 -15.8874 -4.39717 6.5513 18.6521 8.61147 -46.8274 20.5957 -13.5649 -32.3777 51.3157 91.9757 26.3666 3.50053 24.4068 9.9216 71.589 -16.8687 -18.7582 41.6642 -158.437 -73.4282 179.686 -173.375 -50.1253 136.622 0.000375144 -9.68232e-005 5.00951 0.000182922 9.15865e-005 25.7996 0.000242468 -0.00146146 -0.000136173 100.42 79.0802 -71.7825 0.000179853 -0.000934097 54.6253 0.00169648 -6.34728e-007 51.8875 -0.00056093 -0.000531309 -0.000471766 15.4716 85.6674 19.759 0.000300498 -0.000271132 65.9843 0.000998445 -0.000300731 28.9975 -0.000525925 -0.000331081 0.000118246 16.178 83.9647 32.3101 0.00055219 -0.00109201 38.6713 0.00165596 0.000756813 41.1953 -0.000629226 -0.000711606 0.000696249 20.9213 81.3852 5.33348 0.00150124 -0.000547436 45.7781 0.000416294 0.000201823 33.0153 -4.73761e-005 -0.000183876 -0.000401808 -92.8492 -22.7914 -18.8524 -7.143 -22.7388 92.2756 0.784975 26.2667 60.5826 15.0658 60.8911 -44.0095 173.375 50.1253 136.622 -8.65065e-005 3.42893e-005 5.00952 0.000176716 9.17918e-005 25.7996 -7.01656e-015 -0.000167847 -180 -100.42 -79.0801 -71.7829 -0.000209015 0.000132214 54.6253 0.000162439 -6.42185e-005 51.8875 -9.15528e-005 -0.000106812 180 -15.4727 -85.6674 36.9732 -5.80518e-005 3.04065e-006 65.9844 0.000112224 -2.59002e-005 28.9976 -1.52588e-005 -7.62941e-005 180 -59.4366 -74.6443 3.38836 -6.39645e-005 0.000193123 52.4531 0.000152759 -0.000286396 54.9769 -7.0167e-015 -4.57765e-005 -180 -41.7085 -70.6396 34.8767 -0.000146519 0.000173939 54.1605 -2.70434e-005 -4.82047e-005 22.4053 -1.52588e-005 7.01671e-015 180 
0 0 0 -90.9133 -3.69247 -92.7473 -3.74883 20.9834 52.8895 -124.507 -31.179 -19.6052 0.0307013 0.0658783 -24.9922 3.66989 -2.33153 29.0459 -0.565054 0.136104 54.5877 -6.62278e-006 -7.12981e-006 -86.4974 137.932 11.88 -7.23435 0.000794656 0.0130832 -3.4758 1.08714 -2.07233 25.3578 0.58906 -0.0792297 61.0286 1.61979e-006 -3.25599e-006 -86.4974 8.86332e-006 1.24206e-005 144.488 -5.6655 -1.50431 0.439487 -10.3706 -5.04744 -15.6918 -4.57039 7.09473 17.5857 7.76663 -47.4604 19.3521 -13.4889 -32.3188 51.9559 91.6942 26.3735 3.73835 23.984 9.71691 70.9318 -17.6799 -20.4808 44.1561 -149.382 -74.108 -171.806 -173.375 -50.1253 136.622 0.000375118 -0.000169317 5.00951 0.000184297 7.71093e-005 25.7996 0.000243321 -0.0013097 -0.00013532 100.419 79.0802 -71.7824 0.000179427 -0.000937602 54.6253 0.00169581 -4.00026e-005 51.8875 -0.000560931 -0.000540344 -0.000471766 15.4716 85.6674 19.759 0.000300463 -0.000354832 65.9843 0.00099819 -0.000399698 28.9975 -0.000525925 -0.000360853 0.000118246 16.1779 83.9647 32.3102 0.000552439 -0.0011195 38.6713 0.00165555 0.000717787 41.1953 -0.000629227 -0.000751432 0.000696248 20.921 81.3851 5.33375 0.00150466 -0.000595287 45.7781 0.00041606 0.00020099 33.0153 -4.73751e-005 -3.5011e-005 -0.000403942 -92.8394 -22.7085 -19.3284 -6.40428 -23.0036 92.0449 1.4425 26.8564 62.4999 15.9022 62.9605 -44.2098 173.375 50.1254 136.622 -8.65408e-005 2.39592e-005 5.00952 0.000177979 8.38398e-005 25.7996 -7.01675e-015 -0.000289918 180 -100.42 -79.0801 -71.7832 -0.000202791 0.000128359 54.6253 0.000168664 -8.07684e-005 51.8875 -9.15528e-005 -0.000198365 -180 -15.473 -85.6675 36.9728 -5.3879e-005 7.91475e-006 65.9844 0.000114304 -3.8534e-005 28.9975 -1.52588e-005 -0.000183106 180 -59.4367 -74.6443 3.3883 -6.325e-005 0.000188165 52.4531 0.000154966 -0.00029186 54.9769 7.01668e-015 -6.10353e-005 180 -41.7087 -70.6397 34.8765 -0.000145616 0.000172589 54.1605 -2.59173e-005 -6.82361e-005 22.4053 -1.52588e-005 -1.52588e-005 180 
0 0 0 -90.9133 -3.69247 -92.7473 -11.5478 20.3002 56.8598 -127.802 -34.4072 -21.4799 0.0437459 0.0695303 -32.1818 2.36466 -3.14485 28.3455 -0.561994 0.148239 53.3548 -7.60759e-006 -1.06399e-005 -86.4974 140.462 11.5548 -8.32298 0.000352803 0.00424256 -4.75366 2.08283 -0.653242 24.1417 0.589646 -0.0747366 61.4656 1.62957e-006 -4.03923e-006 -86.4974 8.95157e-006 1.23572e-005 144.08 -5.91608 -1.61436 0.0202038 -10.5786 -4.75842 -15.3879 -4.67428 7.52115 16.6663 6.79424 -47.5285 18.0402 -13.1776 -32.2798 52.3574 91.2604 26.3523 3.81232 23.3979 9.11093 70.3543 -18.3117 -22.1581 46.8234 -137.651 -74.1561 -160.763 -173.375 -50.1253 136.622 0.000374194 -2.06107e-005 5.00951 0.000185902 5.45046e-005 25.7996 0.000243322 -0.0013097 -0.00013532 100.419 79.0802 -71.7824 0.000179251 -0.000948911 54.6253 0.00169515 -0.000119064 51.8874 -0.00056093 -0.000559358 -0.000471766 15.4716 85.6674 19.7591 0.000296157 -0.00020068 65.9843 0.000995132 -0.000203683 28.9975 -0.000525924 -0.000422892 0.000118245 16.1777 83.9646 32.3105 0.000552439 -0.00117021 38.6713 0.00165514 0.000644075 41.1953 -0.000629227 -0.000833536 0.000696247 20.9215 81.3853 5.33326 0.00150665 -0.000680108 45.7781 0.000415965 0.00018812 33.0153 -4.73751e-005 -3.74259e-005 -0.000403942 -92.9607 -22.6591 -19.6963 -6.29548 -23.0728 91.7841 1.93658 27.1572 64.3681 16.3443 64.7152 -44.141 173.375 50.1252 136.622 -8.6694e-005 5.32991e-006 5.00952 0.000181198 7.08168e-005 25.7997 -3.24611e-014 -6.10353e-005 -180 -100.42 -79.0802 -71.7826 -0.000219647 9.12441e-005 54.6254 0.000178996 -0.000111527 51.8875 -9.15528e-005 -1.52588e-005 -180 -15.4723 -85.6673 36.9736 -5.08799e-005 1.11447e-005 65.9844 0.000115721 -6.0583e-005 28.9976 -1.52588e-005 3.05176e-005 180 -59.4368 -74.6443 3.38823 -6.16348e-005 0.000181737 52.4531 0.000155809 -0.000300527 54.9769 -7.01664e-015 -9.15529e-005 -180 -41.7083 -70.6395 34.8769 -0.00014371 0.000169242 54.1605 -2.59948e-005 -0.000109613 22.4053 -1.52588e-005 -3.05176e-005 180 
0 0 0 -90.9133 -3.69247 -92.7473 -19.5368 19.509 60.6715 -131.887 -37.1889 -24.1642 0.06168 0.0740025 -39.8231 1.192 -3.21624 27.254 -0.559638 0.156907 52.4703 -5.45044e-006 -1.68566e-005 -86.4974 143.083 11.381 -7.84888 -0.00197742 -0.010869 -10.3112 2.10013 2.0292 24.4991 0.589248 -0.0778001 61.1674 1.60941e-006 -9.02675e-006 -86.4974 2.79025e-006 2.4608e-005 143.741 -6.35306 -1.55947 -0.24777 -10.8855 -4.67558 -15.1938 -4.67228 7.81837 15.6726 6.40579 -47.4392 17.5315 -13.1638 -32.2621 52.394 91.3088 26.3941 4.17241 22.8226 8.46536 69.1371 -18.988 -24.479 49.7503 -121.967 -73.6811 -146.354 -173.375 -50.1253 136.622 0.000374295 -2.23871e-005 5.0095 0.00018782 1.44406e-005 25.7996 0.000243321 -0.00130969 -0.00013532 100.419 79.0802 -71.7823 0.000178942 -0.000972288 54.6252 0.001692 4.06087e-005 51.8874 -0.000560931 -0.000595176 -0.000471766 15.4716 85.6674 19.759 0.000296299 -0.000205531 65.9843 0.000994822 -0.000207922 28.9975 -0.000526778 -0.000303956 0.000117393 16.1782 83.9647 32.3099 0.00055254 -0.00126861 38.6713 0.00165343 0.000796858 41.1952 -0.000630935 -0.000671932 0.000695822 20.9215 81.3853 5.33327 0.00150379 -0.000515555 45.7781 0.000415832 0.00016931 33.0153 -4.73828e-005 -3.74259e-005 -0.000403942 -92.8944 -22.592 -20.0391 -6.21843 -23.1804 91.8554 2.02418 27.445 65.9583 16.0238 66.2706 -43.2181 173.375 50.1252 136.622 -8.63326e-005 -3.23354e-005 5.00952 0.000177749 4.08264e-005 25.7996 -7.01671e-015 -6.10353e-005 -180 -100.42 -79.0802 -71.7826 -0.000214655 7.4058e-005 54.6253 0.000162665 -0.000219328 51.8875 -9.15528e-005 -1.52588e-005 -180 -15.4724 -85.6673 36.9735 -6.42657e-005 -2.48305e-005 65.9844 0.000114307 -0.000108866 28.9976 -1.52588e-005 3.05176e-005 180 -59.437 -74.6443 3.38798 -6.25046e-005 0.000163894 52.4531 0.000157772 -0.00031082 54.9769 -7.01662e-015 -0.000167847 -180 -41.7083 -70.6395 34.8769 -0.000138916 0.000165923 54.1605 -2.47685e-005 -0.00018972 22.4053 -1.52588e-005 -7.62941e-005 180 
0 0 0 -90.9133 -3.69247 -92.7473 -27.2268 18.7393 64.0389 -135.714 -38.8516 -26.2943 0.0873639 0.0774855 -48.4327 0.384769 -3.15993 25.981 -0.5594 0.157766 52.3836 -1.33569e-006 -3.12775e-005 -86.4974 145.51 11.8788 -7.23412 -0.00776953 -0.0240124 -17.9297 2.87357 5.26806 24.409 0.589097 -0.0789434 61.0562 1.70721e-006 -1.63131e-005 -86.4974 9.09884e-006 1.22492e-005 143.395 -6.51069 -1.38954 -0.408772 -11.0303 -4.57498 -15.0365 -4.69745 8.13053 14.8324 5.92819 -47.8358 16.8395 -13.1593 -32.3298 52.5708 91.1177 26.4141 4.48219 22.57 7.63647 68.5066 -19.3135 -26.3148 52.288 -106.883 -72.3974 -132.674 -173.375 -50.1254 136.622 0.000374429 -2.43794e-005 5.0095 0.000189102 -6.55571e-005 25.7996 0.000243321 -0.00131211 -0.00013532 100.419 79.0802 -71.7821 0.000178522 -0.00102477 54.6252 0.00169104 3.66483e-005 51.8874 -0.000560932 -0.000667218 -0.000471767 15.4716 85.6674 19.7591 0.00029583 -0.000210023 65.9843 0.000994571 -0.000215551 28.9975 -0.000526778 -0.000307372 0.000117393 16.1782 83.9647 32.3099 0.000552578 -0.00105678 38.6713 0.00165302 0.000794947 41.1952 -0.000630935 -0.000671933 0.000695822 20.9215 81.3853 5.33325 0.00150475 -0.000515148 45.7781 0.000416307 0.000127238 33.0153 -4.73905e-005 -3.74259e-005 -0.000403941 -92.966 -22.5647 -20.2442 -6.24962 -23.1645 91.4527 1.73719 27.6509 67.8874 16.0168 67.6847 -42.3655 173.375 50.1252 136.622 -8.60946e-005 -0.000107361 5.00952 0.000176742 -1.85644e-005 25.7996 -7.01673e-015 -6.10353e-005 180 -100.42 -79.0802 -71.7827 -0.000211295 2.28299e-005 54.6253 0.000167186 -5.05426e-005 51.8875 -9.15528e-005 -1.52588e-005 -180 -15.4723 -85.6673 36.9736 -6.00705e-005 -2.6646e-005 65.9844 0.000107749 -0.000206218 28.9976 -1.52588e-005 3.05176e-005 180 -59.4366 -74.6443 3.3884 -6.30697e-005 0.000134947 52.4531 0.000158534 -0.000334771 54.9769 -7.0167e-015 -3.05176e-005 -180 -41.7083 -70.6396 34.8769 -0.000145374 0.000136788 54.1605 -2.41549e-005 -2.71614e-005 22.4053 -1.52588e-005 -0.000137329 180 
